<?xml version="1.0" encoding="UTF-8"?>
<svg width="72px" height="72px" viewBox="0 0 72 72" version="1.1" xmlns="http://www.w3.org/2000/svg" xmlns:xlink="http://www.w3.org/1999/xlink">
    <title>Group 3</title>
    <defs>
        <path d="M15,21.6666667 C18.2116667,21.6666667 21.1216667,22.9716667 23.2333333,25.0766667 C24.6816667,23.9566667 26.465,23.3333333 28.3333333,23.3333333 C32.9283333,23.3333333 36.6666667,27.0716667 36.6666667,31.6666667 C36.6666667,32.5866667 35.9216667,33.3333333 35,33.3333333 L35,33.3333333 L26.6666667,33.3333333 C26.6666667,34.2533333 25.9216667,35 25,35 L25,35 L5,35 C4.07833333,35 3.33333333,34.2533333 3.33333333,33.3333333 C3.33333333,26.9 8.56833333,21.6666667 15,21.6666667 Z M28.3333333,11.6666667 C31.09,11.6666667 33.3333333,13.91 33.3333333,16.6666667 C33.3333333,19.4233333 31.09,21.6666667 28.3333333,21.6666667 C25.5766667,21.6666667 23.3333333,19.4233333 23.3333333,16.6666667 C23.3333333,13.91 25.5766667,11.6666667 28.3333333,11.6666667 Z M15,5 C18.6766667,5 21.6666667,7.99 21.6666667,11.6666667 C21.6666667,15.3433333 18.6766667,18.3333333 15,18.3333333 C11.3233333,18.3333333 8.33333333,15.3433333 8.33333333,11.6666667 C8.33333333,7.99 11.3233333,5 15,5 Z" id="path-1"></path>
    </defs>
    <g id="Designs" stroke="none" stroke-width="1" fill="none" fill-rule="evenodd">
        <g id="dashboard" transform="translate(-1074.000000, -180.000000)">
            <g id="summaries" transform="translate(290.000000, 100.000000)">
                <g id="section" transform="translate(760.000000, 48.000000)">
                    <g id="Group-3" transform="translate(24.000000, 32.000000)">
                        <rect id="area-icon" fill="#FC9D3F" x="0" y="0" width="72" height="72" rx="4"></rect>
                        <g id="person-fill" transform="translate(16.000000, 16.000000)">
                            <mask id="mask-2" fill="white">
                                <use xlink:href="#path-1"></use>
                            </mask>
                            <use id="🎨-Icon-Сolor" fill="#FFFFFF" xlink:href="#path-1"></use>
                        </g>
                    </g>
                </g>
            </g>
        </g>
    </g>
</svg>