<?xml version="1.0" encoding="UTF-8"?>
<svg width="72px" height="72px" viewBox="0 0 72 72" version="1.1" xmlns="http://www.w3.org/2000/svg" xmlns:xlink="http://www.w3.org/1999/xlink">
    <title>Group</title>
    <g id="Designs" stroke="none" stroke-width="1" fill="none" fill-rule="evenodd">
        <g id="dashboard" transform="translate(-314.000000, -180.000000)">
            <g id="summaries" transform="translate(290.000000, 100.000000)">
                <g id="section" transform="translate(0.000000, 48.000000)">
                    <g id="Group" transform="translate(24.000000, 32.000000)">
                        <rect id="area-icon" fill="#99C63E" x="0" y="0" width="72" height="72" rx="4"></rect>
                        <g transform="translate(16.000000, 16.000000)" fill="#FFFFFF" id="person-fill">
                            <path d="M20,21.6666667 C26.4316667,21.6666667 31.6666667,26.9 31.6666667,33.3333333 C31.6666667,34.2533333 30.9216667,35 30,35 L30,35 L10,35 C9.07833333,35 8.33333333,34.2533333 8.33333333,33.3333333 C8.33333333,26.9 13.5683333,21.6666667 20,21.6666667 Z M20.461254,3.40672371 L30.0616709,6.9433375 C31.0996309,7.32570254 31.0875355,8.79844397 30.0431591,9.19732597 L25.5988866,10.8948317 C25.8388192,11.5520568 25.9699112,12.263012 25.9699112,13.0050837 C25.9699112,16.3558393 23.2970905,19.0721635 19.9999991,19.0721635 C16.7029077,19.0721635 14.030087,16.3558393 14.030087,13.0050837 C14.030087,12.2982991 14.149008,11.619742 14.3676244,10.988951 L9.93864471,9.35961803 C8.90057253,8.97754643 8.91225419,7.50480834 9.95652315,7.10563466 L19.6152931,3.41355265 C19.8888184,3.30899715 20.1893813,3.30657089 20.461254,3.40672371 Z" id="Combined-Shape"></path>
                        </g>
                    </g>
                </g>
            </g>
        </g>
    </g>
</svg>