<?xml version="1.0" encoding="UTF-8"?>
<svg width="72px" height="72px" viewBox="0 0 72 72" version="1.1" xmlns="http://www.w3.org/2000/svg" xmlns:xlink="http://www.w3.org/1999/xlink">
    <title>Group 2</title>
    <defs>
        <path d="M16.6666667,9.16666667 C16.6666667,8.70666667 17.04,8.33333333 17.5,8.33333333 L22.5,8.33333333 C22.96,8.33333333 23.3333333,8.70666667 23.3333333,9.16666667 L23.3333333,11.6666667 L16.6666667,11.6666667 L16.6666667,9.16666667 Z M22.5,5 C24.7966667,5 26.6666667,6.87 26.6666667,9.16666667 L26.6666667,9.16666667 L26.6666667,11.6666667 L28.3333333,11.6666667 L28.3333333,35 L11.6666667,35 L11.6666667,11.6666667 L13.3333333,11.6666667 L13.3333333,9.16666667 C13.3333333,6.87 15.2033333,5 17.5,5 L17.5,5 Z M31.6666667,11.6666667 C34.4233333,11.6666667 36.6666667,13.91 36.6666667,16.6666667 L36.6666667,16.6666667 L36.6666667,30 C36.6666667,32.7566667 34.4233333,35 31.6666667,35 L31.6666667,35 Z M8.33333333,11.6666667 L8.33333333,35 C5.57666667,35 3.33333333,32.7566667 3.33333333,30 L3.33333333,30 L3.33333333,16.6666667 C3.33333333,13.91 5.57666667,11.6666667 8.33333333,11.6666667 L8.33333333,11.6666667 Z" id="path-1"></path>
    </defs>
    <g id="Designs" stroke="none" stroke-width="1" fill="none" fill-rule="evenodd">
        <g id="dashboard" transform="translate(-694.000000, -180.000000)">
            <g id="summaries" transform="translate(290.000000, 100.000000)">
                <g id="section" transform="translate(380.000000, 48.000000)">
                    <g id="Group-2" transform="translate(24.000000, 32.000000)">
                        <rect id="area-icon" fill="#2DABFF" x="0" y="0" width="72" height="72" rx="4"></rect>
                        <g id="person-fill" transform="translate(16.000000, 16.000000)">
                            <mask id="mask-2" fill="white">
                                <use xlink:href="#path-1"></use>
                            </mask>
                            <use id="🎨-Icon-Сolor" fill="#FFFFFF" xlink:href="#path-1"></use>
                        </g>
                    </g>
                </g>
            </g>
        </g>
    </g>
</svg>