<?xml version="1.0" encoding="UTF-8"?>
<svg width="84px" height="76px" viewBox="0 0 84 76" version="1.1" xmlns="http://www.w3.org/2000/svg" xmlns:xlink="http://www.w3.org/1999/xlink">
    <title>CC50321D-F1D8-41E9-A2F7-8489F97D4852@1.5x</title>
    <g id="Account-Manager" stroke="none" stroke-width="1" fill="none" fill-rule="evenodd">
        <g id="account-manager---search-no-result" transform="translate(-832.000000, -293.000000)" fill="#EDF1F7">
            <g id="card/team-manager" transform="translate(340.000000, 156.000000)">
                <g id="icon-no-data" transform="translate(492.000000, 137.000000)">
                    <path d="M75.3333333,0.5 C79.7265075,0.5 83.325688,3.89949079 83.6438094,8.2114069 L83.6666667,8.83333333 L83.6666667,67.1666667 C83.6666667,71.5598408 80.2671759,75.1590213 75.9552598,75.4771428 L75.3333333,75.5 L8.66666667,75.5 C4.27349252,75.5 0.674311992,72.1005092 0.356190568,67.7885931 L0.333333333,67.1666667 L0.333333333,8.83333333 C0.333333333,4.44015919 3.73282413,0.840978659 8.04474023,0.522857235 L8.66666667,0.5 L75.3333333,0.5 Z M19.8295134,42.1666667 L8.66666667,42.1666667 L8.66666667,65.0833333 C8.66666667,66.1060829 9.4036465,66.9567015 10.3755182,67.1331014 L10.75,67.1666667 L73.25,67.1666667 C74.2727495,67.1666667 75.1233682,66.4296868 75.299768,65.4578151 L75.3333333,65.0833333 L75.3333333,42.1666667 L64.1838821,42.1666667 C63.4810052,42.1666667 62.834166,42.5200868 62.4519178,43.0920385 L62.2838085,43.3956008 L59.4260309,49.75093 C58.1705072,52.5430528 55.4952516,54.4053659 52.4772944,54.6412648 L51.8257363,54.6666667 L32.1979018,54.6666667 C29.1393863,54.6666667 26.3458625,52.993636 24.8918197,50.3417505 L24.6011329,49.7587598 L21.7284417,43.3930584 C21.4396822,42.7531856 20.8525316,42.3092151 20.1749042,42.195425 L19.8295134,42.1666667 Z M73.25,8.83333333 L10.75,8.83333333 C9.72725046,8.83333333 8.87663179,9.57031317 8.70023196,10.5421849 L8.66666667,10.9166667 L8.66666667,33.8333333 L21.1778147,33.8333333 C24.2363302,33.8333333 27.029854,35.506364 28.4838969,38.1582495 L28.7745836,38.7412402 L31.644651,45.1063566 C31.9332953,45.7465 32.5205512,46.190707 33.1983575,46.3045591 L33.5438432,46.3333333 L50.478273,46.3333333 C51.18115,46.3333333 51.8279892,45.9799132 52.2102374,45.4079615 L52.3783467,45.1043992 L55.2361243,38.74907 C56.4916479,35.9569472 59.1669035,34.0946341 62.1848608,33.8587352 L62.8364188,33.8333333 L75.3333333,33.8333333 L75.3333333,10.9166667 C75.3333333,9.89391713 74.5963535,9.04329846 73.6244818,8.86689862 L73.25,8.83333333 Z" id="inbox"></path>
                </g>
            </g>
        </g>
    </g>
</svg>