<svg width="172" height="172" viewBox="0 0 172 172" fill="none" xmlns="http://www.w3.org/2000/svg">
<path d="M90.3645 16.125L18.5626 35.9346C18.5626 35.9346 5.375 35.5637 5.375 49.5709C5.375 55.3517 7.93887 59.6598 7.93887 59.6598L62.6403 151.148C67.8701 159.479 78.9776 154.262 78.9776 154.262L162.857 113.399L159.718 110.214C158.979 106.39 158.549 99.3085 163.741 94.0356C163.857 93.9174 163.878 93.7561 163.94 93.6083L166.625 92.5306L90.3645 16.125ZM26.9314 39.1999L88.7735 22.1396L157.079 90.5741L78.6282 122.109L26.9314 39.1999ZM156.982 102.504C156.808 103.74 156.719 104.944 156.738 106.073L101.674 132.209L156.934 108.758C156.988 109.185 157.036 109.615 157.103 110.002L86.516 144.096L157.66 112.544L157.702 112.711L78.9776 150.371C78.9399 150.395 75.3467 152.306 71.7455 152.306C68.1872 152.306 65.9701 150.479 64.9596 146.721C62.3607 137.068 77.1259 131.596 77.3489 131.516L159.003 96.1883C158.417 97.2633 158.012 98.3571 157.673 99.4483L105.839 123.848L156.982 102.504Z" fill="black"/>
<path d="M92.5924 33.5722L39.5304 49.2618L52.4734 69.6223L107.274 49.5548L92.5924 33.5722Z" fill="black"/>
</svg>
