<svg width="161" height="161" viewBox="0 0 161 161" fill="none" xmlns="http://www.w3.org/2000/svg">
<path d="M95.9459 64.0076C93.3684 61.2341 91.6256 57.7897 90.9177 54.0702C90.2098 50.3508 90.5655 46.507 91.9439 42.9806C93.3224 39.4542 95.6677 36.3882 98.7104 34.1348C101.753 31.8814 105.37 30.532 109.145 30.2417C112.92 29.9514 116.7 30.7319 120.052 32.4936C123.403 34.2553 126.19 36.9267 128.091 40.2009C129.992 43.4751 130.932 47.2193 130.801 51.0033C130.67 54.7873 129.474 58.4576 127.351 61.5926C116.869 59.3515 105.962 60.1902 95.9459 64.0076ZM62.4579 130.812H60.9787C34.6754 130.812 20.125 121.736 20.125 103.402V95.5938C20.125 91.5906 21.7152 87.7515 24.5459 84.9209C27.3765 82.0902 31.2156 80.5 35.2188 80.5H73.0236C64.8296 90.4055 60.3554 102.863 60.375 115.719C60.375 120.951 61.0995 126.013 62.4579 130.812ZM85.5312 45.2812C85.5312 38.6094 82.8809 32.2108 78.1632 27.4931C73.4454 22.7754 67.0469 20.125 60.375 20.125C53.7031 20.125 47.3046 22.7754 42.5868 27.4931C37.8691 32.2108 35.2188 38.6094 35.2188 45.2812C35.2188 51.9531 37.8691 58.3517 42.5868 63.0694C47.3046 67.7871 53.7031 70.4375 60.375 70.4375C67.0469 70.4375 73.4454 67.7871 78.1632 63.0694C82.8809 58.3517 85.5312 51.9531 85.5312 45.2812ZM70.4375 115.719C70.4375 127.728 75.2082 139.246 83.7001 147.737C92.192 156.229 103.709 161 115.719 161C127.728 161 139.246 156.229 147.737 147.737C156.229 139.246 161 127.728 161 115.719C161 103.709 156.229 92.192 147.737 83.7001C139.246 75.2082 127.728 70.4375 115.719 70.4375C103.709 70.4375 92.192 75.2082 83.7001 83.7001C75.2082 92.192 70.4375 103.709 70.4375 115.719ZM135.844 85.5312C137.178 85.5312 138.458 86.0613 139.401 87.0049C140.345 87.9484 140.875 89.2281 140.875 90.5625V105.656C140.875 106.991 140.345 108.27 139.401 109.214C138.458 110.157 137.178 110.688 135.844 110.688H120.75C119.416 110.688 118.136 110.157 117.192 109.214C116.249 108.27 115.719 106.991 115.719 105.656C115.719 104.322 116.249 103.042 117.192 102.099C118.136 101.155 119.416 100.625 120.75 100.625H125.459C122.585 99.0251 119.36 98.1609 116.071 98.1094C113.368 98.0617 110.682 98.5593 108.175 99.5724C105.669 100.586 103.392 102.093 101.48 104.006C100.524 104.885 99.2659 105.36 97.9679 105.332C96.6699 105.304 95.4329 104.775 94.5155 103.857C93.5982 102.938 93.0714 101.7 93.0454 100.402C93.0195 99.1043 93.4963 97.8465 94.3762 96.8918C99.0746 92.1932 105.192 89.1761 111.78 88.3083C118.368 87.4405 125.058 88.7705 130.812 92.092V90.5625C130.812 89.2281 131.343 87.9484 132.286 87.0049C133.23 86.0613 134.509 85.5312 135.844 85.5312ZM127.029 141.197C122.777 142.915 118.188 143.641 113.613 143.321C109.038 143 104.596 141.64 100.625 139.345V140.875C100.625 142.209 100.095 143.489 99.1514 144.433C98.2078 145.376 96.9281 145.906 95.5938 145.906C94.2594 145.906 92.9797 145.376 92.0361 144.433C91.0926 143.489 90.5625 142.209 90.5625 140.875V125.781C90.5625 124.447 91.0926 123.167 92.0361 122.224C92.9797 121.28 94.2594 120.75 95.5938 120.75H110.688C112.022 120.75 113.302 121.28 114.245 122.224C115.189 123.167 115.719 124.447 115.719 125.781C115.719 127.116 115.189 128.395 114.245 129.339C113.302 130.282 112.022 130.812 110.688 130.812H105.978C109.8 132.93 114.207 133.745 118.534 133.135C122.86 132.525 126.87 130.523 129.957 127.431C130.913 126.553 132.172 126.078 133.47 126.106C134.768 126.134 136.005 126.662 136.922 127.581C137.839 128.499 138.366 129.737 138.392 131.035C138.418 132.333 137.941 133.591 137.061 134.546C134.194 137.414 130.782 139.678 127.029 141.187V141.197Z" fill="black"/>
</svg>
