<svg width="145" height="145" viewBox="0 0 145 145" fill="none" xmlns="http://www.w3.org/2000/svg">
<path d="M127.555 62.4153L115.588 50.4528C115.423 50.287 115.227 50.1554 115.01 50.0657C114.794 49.9759 114.562 49.9297 114.328 49.9297C114.094 49.9297 113.862 49.9759 113.646 50.0657C113.43 50.1554 113.233 50.287 113.068 50.4528L80.3227 83.1938L80.388 83.259L80.2836 83.23L75.8016 99.9543L75.8147 99.9572C75.7012 100.285 75.6873 100.639 75.7747 100.974C75.8621 101.309 76.0469 101.612 76.3058 101.842C76.5647 102.073 76.8861 102.221 77.2294 102.269C77.5727 102.317 77.9225 102.263 78.2347 102.112L78.2376 102.125L94.7894 97.6894L94.7792 97.6503L94.8068 97.6778L127.554 64.9325C127.887 64.5984 128.074 64.146 128.074 63.6742C128.074 63.2024 127.888 62.7497 127.555 62.4153ZM81.2507 96.7107L83.9129 86.784L91.1803 94.0514L81.2507 96.7107Z" fill="black"/>
<path d="M104.352 106.184H93.5003H93.4989C93.0266 106.184 92.574 106.372 92.2402 106.706C91.9063 107.04 91.7187 107.493 91.7183 107.966L91.7212 107.983V120.62H31.3374V31.6231H38.583V36.0731C38.5801 36.121 38.5685 36.1645 38.5685 36.2138C38.5685 37.6609 39.743 38.844 41.1988 38.844L41.2191 38.8426V38.8542H81.8583C82.5553 38.8534 83.2235 38.5762 83.7163 38.0834C84.2092 37.5905 84.4864 36.9223 84.4871 36.2254C84.4871 36.2036 84.4813 36.1833 84.4813 36.1616V31.6231H91.7197V44.2642L91.7168 44.2816C91.7165 44.5156 91.7622 44.7473 91.8516 44.9636C91.9409 45.1799 92.072 45.3765 92.2374 45.542C92.4028 45.7075 92.5993 45.8388 92.8155 45.9283C93.0317 46.0178 93.2634 46.0638 93.4975 46.0636H104.351C104.823 46.0632 105.276 45.8755 105.609 45.5417C105.943 45.2078 106.131 44.7551 106.131 44.283V25.027H106.104C106.105 24.956 106.125 24.8892 106.125 24.8168C106.125 22.8007 105.325 20.8672 103.9 19.4411C102.475 18.015 100.542 17.213 98.526 17.2115C98.468 17.2115 98.4158 17.2275 98.3578 17.2289H77.2502V12.2931C77.2502 11.0156 76.2149 9.98325 74.9403 9.98035V9.96875H48.1878V9.97745C48.1661 9.97745 48.1472 9.97165 48.1255 9.97165C46.8495 9.97165 45.8142 11.0055 45.8142 12.2829L45.8185 12.3265V17.2274H24.5557L24.5267 17.2245C22.5113 17.2269 20.5791 18.0286 19.1541 19.4539C17.7291 20.8791 16.9278 22.8115 16.9258 24.8269C16.9258 24.8951 16.9447 24.9574 16.9461 25.0256H16.9258V127.355H16.9302L16.9258 127.394C16.9262 128.392 17.1232 129.38 17.5055 130.302C17.8877 131.224 18.4478 132.061 19.1538 132.766C19.8598 133.472 20.6978 134.031 21.6199 134.412C22.542 134.794 23.5303 134.99 24.5282 134.989C24.6413 134.989 24.7471 134.96 24.8602 134.956V134.986H98.0852C98.2273 134.994 98.3622 135.028 98.5057 135.028C100.52 135.028 102.452 134.228 103.876 132.803C105.301 131.379 106.102 129.448 106.102 127.433C106.102 127.406 106.095 127.381 106.095 127.354H106.136V107.964C106.135 107.73 106.089 107.498 105.999 107.282C105.91 107.066 105.778 106.87 105.613 106.704C105.447 106.539 105.25 106.408 105.034 106.319C104.818 106.229 104.586 106.183 104.352 106.184Z" fill="black"/>
</svg>
