<svg width="60" height="60" viewBox="0 0 60 60" fill="none" xmlns="http://www.w3.org/2000/svg">
<path fill-rule="evenodd" clip-rule="evenodd" d="M50 41.4286V21.4286L35.7143 7.14285H21.4286C19.9131 7.14285 18.4596 7.74489 17.388 8.81653C16.3163 9.88816 15.7143 11.3416 15.7143 12.8571V41.4286C15.7143 42.9441 16.3163 44.3975 17.388 45.4692C18.4596 46.5408 19.9131 47.1429 21.4286 47.1429H44.2857C45.8012 47.1429 47.2547 46.5408 48.3263 45.4692C49.398 44.3975 50 42.9441 50 41.4286Z" stroke="#F70059" stroke-width="4" stroke-linecap="round" stroke-linejoin="round"/>
<path d="M15.7143 12.8571C14.1988 12.8571 12.7453 13.4592 11.6737 14.5308C10.602 15.6024 10 17.0559 10 18.5714V47.1429C10 48.6584 10.602 50.1118 11.6737 51.1835C12.7453 52.2551 14.1988 52.8571 15.7143 52.8571H38.5714C40.087 52.8571 41.5404 52.2551 42.612 51.1835C43.6837 50.1118 44.2857 48.6584 44.2857 47.1429M35.7143 7.14285V15.7143C35.7143 17.2298 36.3163 18.6833 37.388 19.7549C38.4596 20.8265 39.913 21.4286 41.4286 21.4286H50L35.7143 7.14285Z" stroke="#F70059" stroke-width="4" stroke-linecap="round" stroke-linejoin="round"/>
</svg>
