<svg width="52" height="52" viewBox="0 0 52 52" fill="none" xmlns="http://www.w3.org/2000/svg">
<path d="M45.5 52H6.5C4.70573 52 3.17383 51.3652 1.9043 50.0957C0.634766 48.8262 0 47.2943 0 45.5V13C0 11.2057 0.634766 9.67383 1.9043 8.4043C3.17383 7.13477 4.70573 6.5 6.5 6.5H9.75L13 1.625C13.6094 0.541667 15.776 0 19.5 0H32.5C36.224 0 38.3906 0.541667 39 1.625L42.25 6.5H45.5C47.2943 6.5 48.8262 7.13477 50.0957 8.4043C51.3652 9.67383 52 11.2057 52 13V45.5C52 47.2943 51.3652 48.8262 50.0957 50.0957C48.8262 51.3652 47.2943 52 45.5 52ZM16.25 3.25L13 8.125L17.875 13L22.75 6.5L16.25 3.25ZM20.3633 15.2852C19.5169 15.9284 18.6875 16.25 17.875 16.25C16.7917 16.25 15.7083 15.7083 14.625 14.625L11.375 11.375C10.9349 10.9349 10.5625 10.3932 10.2578 9.75H6.5C5.61979 9.75 4.85807 10.0632 4.21484 10.6895C3.57161 11.3158 3.25 12.0859 3.25 13V45.5C3.25 46.4141 3.56315 47.1842 4.18945 47.8105C4.81576 48.4368 5.58594 48.75 6.5 48.75H16.25L22.8008 17.418L20.3633 15.2852ZM35.75 3.25L29.25 6.5L34.125 13L39 8.125L35.75 3.25ZM48.75 13C48.75 12.0859 48.4284 11.3158 47.7852 10.6895C47.1419 10.0632 46.3802 9.75 45.5 9.75H41.6914C41.4206 10.3932 41.0651 10.9349 40.625 11.375L37.375 14.625C36.2917 15.7083 35.2083 16.25 34.125 16.25C33.3125 16.25 32.4831 15.9284 31.6367 15.2852L29.1484 17.4688L35.75 48.75H45.5C46.3802 48.75 47.1419 48.4368 47.7852 47.8105C48.4284 47.1842 48.75 46.4141 48.75 45.5V13Z" fill="#F70059"/>
</svg>
