<svg width="56" height="56" viewBox="0 0 56 56" fill="none" xmlns="http://www.w3.org/2000/svg">
<path d="M27.79 32.662L46.0903 32.6667C47.4827 32.6667 48.8181 33.2198 49.8026 34.2044C50.7872 35.1889 51.3403 36.5243 51.3403 37.9167V40.0283C51.3403 41.2892 51.0678 42.5352 50.5414 43.681C50.0151 44.8268 49.2473 45.8452 48.2907 46.6667C44.6367 49.8027 39.41 51.3333 32.6667 51.3333H32.249C32.795 50.2367 32.8137 48.9417 32.3097 47.8287L32.6667 47.8357C38.64 47.8357 43.0687 46.536 46.011 44.009C46.5846 43.5163 47.045 42.9056 47.3607 42.2186C47.6764 41.5316 47.84 40.7844 47.8403 40.0283V37.9167C47.8403 37.4525 47.656 37.0074 47.3278 36.6792C46.9996 36.351 46.5545 36.1667 46.0903 36.1667H27.9463C28.0522 34.9966 27.9988 33.8177 27.7877 32.662H27.79ZM15.1667 24.5C17.1609 24.5004 19.1138 25.0688 20.7968 26.1386C22.4799 27.2084 23.8234 28.7353 24.6704 30.5408C25.5173 32.3463 25.8326 34.3556 25.5792 36.3337C25.3259 38.3118 24.5145 40.1769 23.24 41.7107L29.827 48.2767C30.1417 48.5881 30.3267 49.0073 30.3446 49.4498C30.3625 49.8922 30.212 50.325 29.9235 50.6609C29.635 50.9968 29.2298 51.2108 28.7897 51.2598C28.3497 51.3088 27.9074 51.1892 27.552 50.925L27.3537 50.7547L20.58 43.9973C19.1931 44.8317 17.6321 45.3341 16.0189 45.4654C14.4057 45.5967 12.784 45.3533 11.2805 44.7541C9.77692 44.155 8.43223 43.2164 7.35142 42.0116C6.27061 40.8069 5.48295 39.3685 5.04995 37.809C4.61696 36.2495 4.55035 34.611 4.85534 33.0214C5.16032 31.4319 5.82864 29.9344 6.8081 28.6459C7.78755 27.3574 9.05163 26.3127 10.5016 25.5935C11.9516 24.8743 13.5481 24.5001 15.1667 24.5ZM15.1667 28C13.3102 28 11.5297 28.7375 10.2169 30.0502C8.90416 31.363 8.16667 33.1435 8.16667 35C8.16667 36.8565 8.90416 38.637 10.2169 39.9497C11.5297 41.2625 13.3102 42 15.1667 42C17.0232 42 18.8037 41.2625 20.1164 39.9497C21.4292 38.637 22.1667 36.8565 22.1667 35C22.1667 33.1435 21.4292 31.363 20.1164 30.0502C18.8037 28.7375 17.0232 28 15.1667 28ZM32.6667 4.67599C35.7609 4.67599 38.7283 5.90516 40.9162 8.09308C43.1042 10.281 44.3333 13.2485 44.3333 16.3427C44.3333 19.4369 43.1042 22.4043 40.9162 24.5922C38.7283 26.7802 35.7609 28.0093 32.6667 28.0093C29.5725 28.0093 26.605 26.7802 24.4171 24.5922C22.2292 22.4043 21 19.4369 21 16.3427C21 13.2485 22.2292 10.281 24.4171 8.09308C26.605 5.90516 29.5725 4.67599 32.6667 4.67599ZM32.6667 8.17599C31.5942 8.17599 30.5322 8.38723 29.5414 8.79765C28.5506 9.20806 27.6503 9.80961 26.892 10.568C26.1336 11.3263 25.5321 12.2266 25.1216 13.2174C24.7112 14.2082 24.5 15.2702 24.5 16.3427C24.5 17.4151 24.7112 18.4771 25.1216 19.4679C25.5321 20.4587 26.1336 21.359 26.892 22.1174C27.6503 22.8757 28.5506 23.4773 29.5414 23.8877C30.5322 24.2981 31.5942 24.5093 32.6667 24.5093C34.8326 24.5093 36.9098 23.6489 38.4414 22.1174C39.9729 20.5858 40.8333 18.5086 40.8333 16.3427C40.8333 14.1767 39.9729 12.0995 38.4414 10.568C36.9098 9.03641 34.8326 8.17599 32.6667 8.17599Z" fill="#F70059"/>
</svg>
