<svg width="60" height="60" viewBox="0 0 60 60" fill="#FFF" xmlns="http://www.w3.org/2000/svg">
<path d="M31.5225 5.625L6.47531 12.5353C6.47531 12.5353 1.875 12.4059 1.875 17.2922C1.875 19.3088 2.76937 20.8116 2.76937 20.8116L21.8512 52.7259C23.6756 55.6322 27.5503 53.8125 27.5503 53.8125L56.8106 39.5578L55.7156 38.4469C55.4578 37.1128 55.3078 34.6425 57.1191 32.8031C57.1594 32.7619 57.1669 32.7056 57.1884 32.6541L58.125 32.2781L31.5225 5.625ZM9.39469 13.6744L30.9675 7.72312L54.795 31.5956L27.4284 42.5963L9.39469 13.6744ZM54.7612 35.7572C54.7003 36.1884 54.6694 36.6084 54.6759 37.0022L35.4675 46.1194L54.7444 37.9387C54.7631 38.0878 54.78 38.2378 54.8034 38.3728L30.18 50.2659L54.9975 39.2597L55.0125 39.3178L27.5503 52.455C27.5372 52.4634 26.2837 53.13 25.0275 53.13C23.7862 53.13 23.0128 52.4925 22.6603 51.1819C21.7537 47.8144 26.9044 45.9056 26.9822 45.8775L55.4663 33.5541C55.2619 33.9291 55.1203 34.3106 55.0022 34.6913L36.9206 43.2028L54.7612 35.7572Z" fill="#F70059"/>
<path d="M32.2997 11.7112L13.7897 17.1844L18.3047 24.2869L37.4212 17.2866L32.2997 11.7112Z" fill="#F70059"/>
</svg>
