<svg width="36" height="33" viewBox="0 0 36 33" fill="none" xmlns="http://www.w3.org/2000/svg">
<path d="M9.64397 0.680178L11.8805 -2.33423L9.12732 -4.37688L6.84411 -1.81969L9.64397 0.680178ZM12.9951 3.16648L15.9465 5.48545L18.3305 2.45128L15.2316 0.152071L12.9951 3.16648ZM10.4007 7.49048L7.04346 5.81188L7.01724 5.86432L6.99266 5.91756L10.4007 7.49048ZM8.13056 13.7603L4.51728 12.744L4.5063 12.7831L4.49616 12.8224L8.13056 13.7603ZM7.59007 20.3544L3.85522 20.7279L4.35912 25.7669L9.03371 23.8191L7.59007 20.3544ZM14.1842 21.4354L11.5301 24.0895L11.6184 24.1779L11.7125 24.2602L14.1842 21.4354ZM14.0761 30.732L16.7302 33.3861L16.7681 33.3482L16.8049 33.3092L14.0761 30.732ZM3.04987 29.651L-0.0560431 31.7586L-0.0124624 31.8228L0.033736 31.8852L3.04987 29.651ZM1.96886 15.3818L-1.64767 14.3772L-1.66072 14.4241L-1.67254 14.4714L1.96886 15.3818ZM29.5344 0.680178L31.7709 -2.33423L29.0177 -4.37688L26.7345 -1.81969L29.5344 0.680178ZM32.8855 3.16648L35.8369 5.48545L38.2209 2.45128L35.122 0.152071L32.8855 3.16648ZM30.2911 7.49048L26.9339 5.81188L26.9076 5.86432L26.8831 5.91756L30.2911 7.49048ZM28.021 13.7603L24.4077 12.744L24.3967 12.7831L24.3866 12.8224L28.021 13.7603ZM27.4805 20.3544L23.7456 20.7279L24.2495 25.7669L28.9241 23.8191L27.4805 20.3544ZM34.0746 21.4354L31.4205 24.0895L31.5088 24.1779L31.6029 24.2602L34.0746 21.4354ZM33.9665 30.732L36.6206 33.3861L36.6585 33.3482L36.6953 33.3092L33.9665 30.732ZM22.9403 29.651L19.8344 31.7586L19.8779 31.8228L19.9241 31.8852L22.9403 29.651ZM21.8593 15.3818L18.2427 14.3772L18.2297 14.4241L18.2179 14.4714L21.8593 15.3818ZM7.40747 3.69458L10.7586 6.18089L15.2316 0.152071L11.8805 -2.33423L7.40747 3.69458ZM10.0436 0.8475C9.0277 2.14052 8.03217 3.83444 7.04346 5.81188L13.7579 9.16908C14.6429 7.39905 15.377 6.2103 15.9465 5.48545L10.0436 0.8475ZM6.99266 5.91756C6.0329 7.99705 5.21119 10.2768 4.51728 12.744L11.7438 14.7765C12.3471 12.6315 13.0388 10.7314 13.8087 9.0634L6.99266 5.91756ZM4.49616 12.8224C3.81611 15.4576 3.5924 18.0996 3.85522 20.7279L11.3249 19.9809C11.1553 18.2851 11.292 16.5311 11.765 14.6982L4.49616 12.8224ZM9.03371 23.8191C9.47951 23.6334 9.85523 23.5674 10.1845 23.5674V16.0604C8.7841 16.0604 7.43022 16.3547 6.14642 16.8896L9.03371 23.8191ZM10.1845 23.5674C10.8157 23.5674 11.1816 23.741 11.5301 24.0895L16.8383 18.7813C15.0247 16.9677 12.7242 16.0604 10.1845 16.0604V23.5674ZM11.7125 24.2602C11.9055 24.429 12.1603 24.7224 12.1603 25.6513H19.6672C19.6672 22.9769 18.769 20.4596 16.6558 18.6106L11.7125 24.2602ZM12.1603 25.6513C12.1603 26.9583 11.803 27.6722 11.3472 28.1548L16.8049 33.3092C18.7994 31.1973 19.6672 28.5241 19.6672 25.6513H12.1603ZM11.422 28.0779C10.9616 28.5382 10.3955 28.8162 9.42776 28.8162V36.3232C12.2075 36.3232 14.7403 35.376 16.7302 33.3861L11.422 28.0779ZM9.42776 28.8162C7.58888 28.8162 6.6792 28.2446 6.06599 27.4168L0.033736 31.8852C2.3032 34.9489 5.64545 36.3232 9.42776 36.3232V28.8162ZM6.15577 27.5434C5.29075 26.2686 4.74944 24.5565 4.74944 22.1921H-2.75751C-2.75751 25.7371 -1.92956 28.9976 -0.0560431 31.7586L6.15577 27.5434ZM4.74944 22.1921C4.74944 20.6433 5.0105 18.6912 5.61027 16.2921L-1.67254 14.4714C-2.36997 17.2611 -2.75751 19.8492 -2.75751 22.1921H4.74944ZM5.5854 16.3864C6.23674 14.0415 7.15535 11.6722 8.35287 9.27718L1.63846 5.91998C0.241583 8.71373 -0.857681 11.5332 -1.64767 14.3772L5.5854 16.3864ZM8.35287 9.27718C9.51215 6.95863 10.8788 4.93283 12.4438 3.18005L6.84411 -1.81969C4.80575 0.463263 3.07358 3.04972 1.63846 5.91998L8.35287 9.27718ZM27.2979 3.69458L30.649 6.18088L35.122 0.152071L31.7709 -2.33423L27.2979 3.69458ZM29.934 0.8475C28.9181 2.14052 27.9226 3.83444 26.9339 5.81188L33.6483 9.16908C34.5333 7.39905 35.2674 6.2103 35.8369 5.48545L29.934 0.8475ZM26.8831 5.91756C25.9233 7.99705 25.1016 10.2768 24.4077 12.744L31.6343 14.7765C32.2375 12.6315 32.9292 10.7314 33.6991 9.0634L26.8831 5.91756ZM24.3866 12.8224C23.7065 15.4576 23.4828 18.0996 23.7456 20.7279L31.2153 19.9809C31.0457 18.2851 31.1824 16.5311 31.6554 14.6982L24.3866 12.8224ZM28.9241 23.8191C29.3699 23.6334 29.7456 23.5674 30.0749 23.5674V16.0604C28.6745 16.0604 27.3206 16.3547 26.0368 16.8896L28.9241 23.8191ZM30.0749 23.5674C30.7061 23.5674 31.072 23.741 31.4205 24.0895L36.7287 18.7813C34.9151 16.9677 32.6146 16.0604 30.0749 16.0604V23.5674ZM31.6029 24.2602C31.7959 24.429 32.0507 24.7224 32.0507 25.6513H39.5576C39.5576 22.9769 38.6594 20.4596 36.5462 18.6106L31.6029 24.2602ZM32.0507 25.6513C32.0507 26.9583 31.6934 27.6722 31.2376 28.1548L36.6953 33.3092C38.6898 31.1973 39.5576 28.5241 39.5576 25.6513H32.0507ZM31.3124 28.0779C30.852 28.5382 30.2859 28.8162 29.3182 28.8162V36.3232C32.0979 36.3232 34.6307 35.376 36.6206 33.3861L31.3124 28.0779ZM29.3182 28.8162C27.4793 28.8162 26.5696 28.2446 25.9564 27.4168L19.9241 31.8852C22.1936 34.9489 25.5359 36.3232 29.3182 36.3232V28.8162ZM26.0462 27.5434C25.1812 26.2686 24.6398 24.5565 24.6398 22.1921H17.1329C17.1329 25.7371 17.9608 28.9976 19.8344 31.7586L26.0462 27.5434ZM24.6398 22.1921C24.6398 20.6433 24.9009 18.6912 25.5007 16.2921L18.2179 14.4714C17.5204 17.2611 17.1329 19.8492 17.1329 22.1921H24.6398ZM25.4758 16.3864C26.1271 14.0415 27.0457 11.6722 28.2433 9.27718L21.5289 5.91998C20.132 8.71373 19.0327 11.5332 18.2427 14.3772L25.4758 16.3864ZM28.2433 9.27718C29.4025 6.95863 30.7692 4.93283 32.3342 3.18005L26.7345 -1.81969C24.6962 0.463263 22.964 3.04972 21.5289 5.91998L28.2433 9.27718Z" fill="white"/>
</svg>
