<svg width="36" height="33" viewBox="0 0 36 33" fill="none" xmlns="http://www.w3.org/2000/svg">
<path d="M26.8547 32.7206L24.6182 35.735L27.3713 37.7776L29.6545 35.2205L26.8547 32.7206ZM23.5036 30.2343L20.5522 27.9153L18.1682 30.9495L21.2671 33.2487L23.5036 30.2343ZM26.098 25.9103L29.4552 27.5889L29.4814 27.5364L29.506 27.4832L26.098 25.9103ZM28.3681 19.6405L31.9814 20.6567L31.9924 20.6177L32.0025 20.5784L28.3681 19.6405ZM28.9086 13.0464L32.6434 12.6729L32.1395 7.63389L27.4649 9.58163L28.9086 13.0464ZM22.3145 11.9654L24.9686 9.31127L24.8802 9.2229L24.7862 9.1406L22.3145 11.9654ZM22.4226 2.66878L19.7685 0.0146713L19.7306 0.052578L19.6938 0.0915527L22.4226 2.66878ZM33.4488 3.74977L36.5547 1.6422L36.5111 1.57797L36.4649 1.51561L33.4488 3.74977ZM34.5298 18.019L38.1463 19.0236L38.1594 18.9766L38.1712 18.9293L34.5298 18.019ZM6.96429 32.7206L4.72779 35.735L7.48094 37.7776L9.76415 35.2205L6.96429 32.7206ZM3.61319 30.2343L0.66177 27.9153L-1.72223 30.9495L1.3767 33.2487L3.61319 30.2343ZM6.20759 25.9103L9.5648 27.5889L9.59102 27.5364L9.61559 27.4832L6.20759 25.9103ZM8.47769 19.6405L12.091 20.6567L12.102 20.6177L12.1121 20.5784L8.47769 19.6405ZM9.01819 13.0464L12.753 12.6729L12.2491 7.63389L7.57455 9.58163L9.01819 13.0464ZM2.42409 11.9654L5.07819 9.31127L4.98982 9.2229L4.89577 9.1406L2.42409 11.9654ZM2.53219 2.66878L-0.121914 0.0146713L-0.159821 0.052578L-0.196629 0.0915527L2.53219 2.66878ZM13.5584 3.74977L16.6643 1.6422L16.6207 1.57797L16.5745 1.5156L13.5584 3.74977ZM14.6394 18.019L18.2559 19.0236L18.269 18.9766L18.2808 18.9293L14.6394 18.019ZM29.0912 29.7062L25.7401 27.2199L21.2671 33.2487L24.6182 35.735L29.0912 29.7062ZM26.455 32.5533C27.471 31.2602 28.4665 29.5663 29.4552 27.5889L22.7408 24.2317C21.8558 26.0017 21.1217 27.1905 20.5522 27.9153L26.455 32.5533ZM29.506 27.4832C30.4658 25.4037 31.2875 23.124 31.9814 20.6567L24.7548 18.6242C24.1515 20.7693 23.4598 22.6694 22.69 24.3374L29.506 27.4832ZM32.0025 20.5784C32.6825 17.9432 32.9063 15.3011 32.6434 12.6729L25.1737 13.4199C25.3433 15.1156 25.2067 16.8696 24.7337 18.7026L32.0025 20.5784ZM27.4649 9.58163C27.0191 9.76738 26.6434 9.8334 26.3142 9.8334V17.3403C27.7146 17.3403 29.0684 17.046 30.3522 16.5111L27.4649 9.58163ZM26.3142 9.8334C25.683 9.8334 25.3171 9.65973 24.9686 9.31127L19.6604 14.6195C21.4739 16.433 23.7745 17.3403 26.3142 17.3403V9.8334ZM24.7862 9.1406C24.5932 8.97171 24.3384 8.67839 24.3384 7.74948L16.8314 7.74948C16.8314 10.4239 17.7297 12.9412 19.8428 14.7902L24.7862 9.1406ZM24.3384 7.74948C24.3384 6.44242 24.6957 5.72853 25.1514 5.246L19.6938 0.0915527C17.6992 2.20342 16.8314 4.87666 16.8314 7.74948L24.3384 7.74948ZM25.0767 5.32288C25.537 4.86253 26.1031 4.58455 27.0709 4.58455L27.0709 -2.92239C24.2912 -2.92239 21.7584 -1.97524 19.7685 0.0146713L25.0767 5.32288ZM27.0709 4.58455C28.9098 4.58455 29.8195 5.15612 30.4327 5.98395L36.4649 1.51561C34.1955 -1.54817 30.8532 -2.92239 27.0709 -2.92239L27.0709 4.58455ZM30.3429 5.85735C31.2079 7.13212 31.7492 8.84421 31.7492 11.2087L39.2562 11.2087C39.2562 7.66368 38.4282 4.40317 36.5547 1.6422L30.3429 5.85735ZM31.7492 11.2087C31.7492 12.7574 31.4882 14.7095 30.8884 17.1086L38.1712 18.9293C38.8686 16.1396 39.2562 13.5515 39.2562 11.2087L31.7492 11.2087ZM30.9133 17.0144C30.2619 19.3592 29.3433 21.7285 28.1458 24.1236L34.8602 27.4808C36.2571 24.687 37.3563 21.8675 38.1463 19.0236L30.9133 17.0144ZM28.1458 24.1236C26.9865 26.4421 25.6198 28.4679 24.0548 30.2207L29.6545 35.2205C31.6929 32.9375 33.4251 30.351 34.8602 27.4808L28.1458 24.1236ZM9.20079 29.7062L5.84969 27.2199L1.3767 33.2487L4.72779 35.735L9.20079 29.7062ZM6.56461 32.5533C7.58056 31.2602 8.57608 29.5663 9.5648 27.5889L2.85038 24.2317C1.96537 26.0017 1.23129 27.1905 0.66177 27.9153L6.56461 32.5533ZM9.61559 27.4832C10.5754 25.4037 11.3971 23.124 12.091 20.6567L4.86441 18.6242C4.26112 20.7693 3.56943 22.6694 2.79959 24.3374L9.61559 27.4832ZM12.1121 20.5784C12.7921 17.9432 13.0159 15.3011 12.753 12.6729L5.28335 13.4199C5.45292 15.1156 5.31631 16.8696 4.84329 18.7026L12.1121 20.5784ZM7.57455 9.58163C7.12875 9.76738 6.75302 9.8334 6.42379 9.8334V17.3403C7.82416 17.3403 9.17804 17.046 10.4618 16.5111L7.57455 9.58163ZM6.42379 9.8334C5.79258 9.8334 5.42666 9.65973 5.07819 9.31127L-0.230011 14.6195C1.58352 16.433 3.88407 17.3403 6.42379 17.3403V9.8334ZM4.89577 9.1406C4.70275 8.97171 4.44796 8.67839 4.44796 7.74948L-3.05898 7.74948C-3.05898 10.4239 -2.16071 12.9412 -0.0475883 14.7902L4.89577 9.1406ZM4.44796 7.74948C4.44796 6.44242 4.80529 5.72853 5.26101 5.246L-0.196629 0.0915527C-2.19117 2.20342 -3.05898 4.87666 -3.05898 7.74948L4.44796 7.74948ZM5.1863 5.32288C5.64665 4.86253 6.21272 4.58455 7.18049 4.58455V-2.92239C4.40079 -2.92239 1.868 -1.97524 -0.121914 0.0146713L5.1863 5.32288ZM7.18049 4.58455C9.01938 4.58455 9.92906 5.15612 10.5423 5.98395L16.5745 1.5156C14.3051 -1.54817 10.9628 -2.92239 7.18049 -2.92239V4.58455ZM10.4525 5.85735C11.3175 7.13212 11.8588 8.84421 11.8588 11.2087L19.3658 11.2087C19.3658 7.66368 18.5378 4.40317 16.6643 1.6422L10.4525 5.85735ZM11.8588 11.2087C11.8588 12.7574 11.5978 14.7095 10.998 17.1086L18.2808 18.9293C18.9782 16.1396 19.3658 13.5515 19.3658 11.2087L11.8588 11.2087ZM11.0229 17.0144C10.3715 19.3592 9.45291 21.7285 8.25538 24.1236L14.9698 27.4808C16.3667 24.687 17.4659 21.8675 18.2559 19.0236L11.0229 17.0144ZM8.25538 24.1236C7.09611 26.4421 5.72941 28.4679 4.16443 30.2207L9.76415 35.2205C11.8025 32.9375 13.5347 30.351 14.9698 27.4808L8.25538 24.1236Z" fill="white"/>
</svg>
